<svg width="268" height="99" viewBox="0 0 268 99" fill="none" xmlns="http://www.w3.org/2000/svg">
<g clip-path="url(#clip0)">
<path d="M-0.00018692 -7.62939e-05H267.719V98.5581H-0.00018692V-7.62939e-05Z" fill="#2D3C49" fill-opacity="0.822222"/>
<path d="M89.2452 22.0367L82.6046 49.0844H78.7781L73.4072 26.6325L68.1564 49.0844H64.4157L57.6549 22.0367H61.1383L66.5091 44.525L71.7942 22.0367H75.2432L80.5798 44.7429L85.9163 22.0367H89.2452Z" fill="white"/>
<path d="M111.072 49.0844H94.2386V22.0367H111.072V25.2337H97.6362V32.6451H111.072V35.8421H97.6362V45.8873H111.072V49.0844Z" fill="white"/>
<path d="M135.747 40.7648C135.747 42.109 135.507 43.2958 135.026 44.3251C134.546 45.3545 133.9 46.2022 133.087 46.8683C132.126 47.6675 131.068 48.2367 129.913 48.5757C128.769 48.9148 127.31 49.0844 125.537 49.0844H116.477V22.0367H124.044C125.909 22.0367 127.305 22.1094 128.231 22.2547C129.158 22.4 130.044 22.7028 130.891 23.163C131.829 23.6837 132.51 24.3558 132.933 25.1793C133.356 25.9906 133.568 26.9655 133.568 28.1038C133.568 29.3875 133.259 30.4834 132.641 31.3917C132.023 32.2878 131.2 33.0084 130.17 33.5533V33.6986C131.898 34.074 133.259 34.8794 134.254 36.1146C135.249 37.3377 135.747 38.8878 135.747 40.7648V40.7648ZM130.033 28.5761C130.033 27.9222 129.93 27.3712 129.724 26.9231C129.518 26.475 129.186 26.1117 128.729 25.8332C128.191 25.5062 127.539 25.3064 126.773 25.2337C126.006 25.149 125.057 25.1066 123.924 25.1066H119.875V32.9175H124.267C125.331 32.9175 126.178 32.8631 126.807 32.7541C127.436 32.633 128.02 32.3908 128.557 32.0275C129.095 31.6642 129.472 31.1979 129.69 30.6288C129.919 30.0475 130.033 29.3633 130.033 28.5761V28.5761ZM132.212 40.9101C132.212 39.8202 132.058 38.9544 131.749 38.3125C131.44 37.6707 130.879 37.1258 130.067 36.6777C129.518 36.3749 128.849 36.1812 128.06 36.0964C127.282 35.9995 126.332 35.9511 125.211 35.9511H119.875V46.0145H124.37C125.858 46.0145 127.076 45.9358 128.025 45.7783C128.975 45.6088 129.753 45.3061 130.359 44.8701C131 44.3978 131.469 43.8589 131.766 43.2534C132.063 42.6479 132.212 41.8668 132.212 40.9101V40.9101Z" fill="white"/>
<path d="M162.155 35.5878C162.155 38.0461 161.646 40.2744 160.628 42.2725C159.621 44.2707 158.277 45.8207 156.596 46.9227C155.429 47.6857 154.125 48.2367 152.683 48.5757C151.253 48.9148 149.366 49.0844 147.021 49.0844H140.569V22.0367H146.952C149.446 22.0367 151.425 22.2305 152.889 22.618C154.365 22.9934 155.612 23.5141 156.63 24.1802C158.369 25.3306 159.724 26.8625 160.697 28.7759C161.669 30.6893 162.155 32.9599 162.155 35.5878V35.5878ZM158.603 35.5333C158.603 33.414 158.254 31.6278 157.557 30.1746C156.859 28.7214 155.818 27.577 154.434 26.7414C153.427 26.1359 152.357 25.7181 151.225 25.488C150.092 25.2458 148.737 25.1248 147.158 25.1248H143.966V45.9963H147.158C148.794 45.9963 150.218 45.8692 151.431 45.6149C152.655 45.3605 153.776 44.8883 154.794 44.198C156.064 43.3382 157.013 42.2059 157.642 40.8011C158.283 39.3964 158.603 37.6404 158.603 35.5333Z" fill="white"/>
<path d="M184.514 49.0844H167.681V22.0367H184.514V25.2337H171.078V32.6451H184.514V35.8421H171.078V45.8873H184.514V49.0844Z" fill="white"/>
<path d="M210.064 22.0367L200.764 49.0844H196.234L186.933 22.0367H190.571L198.584 45.8328L206.598 22.0367H210.064Z" fill="white"/>
<path d="M113.969 69.0297L112.163 76.3878H111.122L109.66 70.28L108.232 76.3878H107.214L105.375 69.0297H106.323L107.784 75.1475L109.222 69.0297H110.16L111.612 75.2068L113.063 69.0297H113.969Z" fill="white"/>
<path d="M119.907 76.3878H115.327V69.0297H119.907V69.8994H116.252V71.9156H119.907V72.7854H116.252V75.5181H119.907V76.3878Z" fill="white"/>
<path d="M126.62 74.1246C126.62 74.4902 126.554 74.8131 126.423 75.0931C126.293 75.3731 126.117 75.6038 125.896 75.7849C125.635 76.0024 125.347 76.1572 125.032 76.2495C124.721 76.3417 124.324 76.3878 123.842 76.3878H121.377V69.0297H123.436C123.943 69.0297 124.323 69.0495 124.575 69.089C124.827 69.1285 125.068 69.2109 125.298 69.3361C125.554 69.4777 125.739 69.6606 125.854 69.8846C125.969 70.1053 126.027 70.3705 126.027 70.6802C126.027 71.0294 125.943 71.3276 125.775 71.5747C125.607 71.8184 125.382 72.0145 125.102 72.1627V72.2022C125.572 72.3043 125.943 72.5234 126.213 72.8594C126.484 73.1922 126.62 73.6139 126.62 74.1245V74.1246ZM125.065 70.8087C125.065 70.6308 125.037 70.4809 124.981 70.359C124.925 70.2371 124.835 70.1383 124.71 70.0625C124.564 69.9736 124.387 69.9192 124.178 69.8994C123.97 69.8764 123.711 69.8648 123.403 69.8648H122.302V71.9897H123.497C123.786 71.9897 124.016 71.9749 124.187 71.9453C124.359 71.9123 124.517 71.8464 124.664 71.7476C124.81 71.6488 124.913 71.5219 124.972 71.3671C125.034 71.209 125.065 71.0228 125.065 70.8087L125.065 70.8087ZM125.658 74.1641C125.658 73.8676 125.616 73.632 125.532 73.4574C125.448 73.2828 125.295 73.1346 125.074 73.0127C124.925 72.9303 124.743 72.8776 124.528 72.8545C124.317 72.8282 124.058 72.815 123.753 72.815H122.302V75.5527H123.525C123.929 75.5527 124.261 75.5313 124.519 75.4885C124.777 75.4423 124.989 75.36 125.154 75.2414C125.328 75.1129 125.456 74.9663 125.537 74.8016C125.617 74.6369 125.658 74.4244 125.658 74.1641V74.1641Z" fill="white"/>
<path d="M136.343 74.2876C136.343 74.5742 136.279 74.8576 136.152 75.1376C136.027 75.4176 135.851 75.6548 135.624 75.8492C135.375 76.06 135.084 76.2247 134.751 76.3433C134.421 76.4619 134.023 76.5212 133.556 76.5212C133.055 76.5212 132.604 76.4718 132.203 76.373C131.804 76.2742 131.398 76.1276 130.984 75.9332V74.7077H131.05C131.401 75.0173 131.807 75.2562 132.268 75.4242C132.728 75.5922 133.161 75.6762 133.566 75.6762C134.138 75.6762 134.583 75.5626 134.901 75.3353C135.221 75.1079 135.382 74.8048 135.382 74.426C135.382 74.0998 135.305 73.8593 135.153 73.7045C135.003 73.5497 134.775 73.4294 134.467 73.3438C134.233 73.2779 133.98 73.2235 133.706 73.1807C133.435 73.1379 133.147 73.0835 132.842 73.0176C132.226 72.8793 131.768 72.6437 131.47 72.311C131.174 71.9749 131.026 71.5384 131.026 71.0014C131.026 70.3854 131.272 69.8813 131.764 69.4893C132.255 69.0939 132.879 68.8963 133.636 68.8963C134.124 68.8963 134.572 68.9457 134.98 69.0445C135.388 69.1434 135.749 69.2653 136.063 69.4102V70.5666H135.998C135.733 70.3294 135.385 70.1334 134.952 69.9785C134.523 69.8204 134.082 69.7413 133.631 69.7413C133.136 69.7413 132.738 69.85 132.436 70.0675C132.137 70.2849 131.988 70.5649 131.988 70.9075C131.988 71.2139 132.062 71.4544 132.212 71.629C132.361 71.8036 132.624 71.937 133.001 72.0293C133.2 72.0754 133.483 72.1314 133.85 72.1973C134.218 72.2632 134.529 72.3307 134.784 72.3999C135.301 72.5449 135.69 72.764 135.951 73.0572C136.212 73.3504 136.343 73.7605 136.343 74.2876Z" fill="white"/>
<path d="M142.748 69.0297L140.302 73.1609V76.3878H139.377V73.2647L136.922 69.0297H137.944L139.844 72.3208L141.763 69.0297H142.748Z" fill="white"/>
<path d="M148.76 74.2876C148.76 74.5742 148.696 74.8576 148.569 75.1376C148.444 75.4176 148.268 75.6548 148.041 75.8492C147.792 76.06 147.501 76.2247 147.168 76.3433C146.838 76.4619 146.44 76.5212 145.973 76.5212C145.472 76.5212 145.021 76.4718 144.62 76.373C144.221 76.2742 143.815 76.1276 143.401 75.9332V74.7077H143.466C143.818 75.0173 144.224 75.2562 144.685 75.4242C145.145 75.5922 145.578 75.6762 145.983 75.6762C146.555 75.6762 147 75.5626 147.318 75.3353C147.638 75.1079 147.798 74.8048 147.798 74.426C147.798 74.0998 147.722 73.8593 147.57 73.7045C147.42 73.5497 147.192 73.4294 146.884 73.3438C146.65 73.2779 146.396 73.2235 146.123 73.1807C145.852 73.1379 145.564 73.0835 145.259 73.0176C144.643 72.8793 144.185 72.6437 143.887 72.311C143.591 71.9749 143.443 71.5384 143.443 71.0014C143.443 70.3854 143.689 69.8813 144.181 69.4893C144.672 69.0939 145.296 68.8963 146.053 68.8963C146.541 68.8963 146.989 68.9457 147.397 69.0445C147.805 69.1434 148.166 69.2653 148.48 69.4102V70.5666H148.415C148.15 70.3294 147.802 70.1334 147.369 69.9785C146.94 69.8204 146.499 69.7413 146.048 69.7413C145.553 69.7413 145.155 69.85 144.853 70.0675C144.554 70.2849 144.405 70.5649 144.405 70.9075C144.405 71.2139 144.48 71.4544 144.629 71.629C144.778 71.8036 145.041 71.937 145.418 72.0293C145.617 72.0754 145.9 72.1314 146.267 72.1973C146.635 72.2632 146.946 72.3307 147.201 72.3999C147.718 72.5449 148.107 72.764 148.368 73.0572C148.629 73.3504 148.76 73.7605 148.76 74.2876V74.2876Z" fill="white"/>
<path d="M155.202 69.8994H152.719V76.3878H151.794V69.8994H149.311V69.0297H155.202V69.8994Z" fill="white"/>
<path d="M160.724 76.3878H156.145V69.0297H160.724V69.8994H157.069V71.9156H160.724V72.7854H157.069V75.5181H160.724V76.3878Z" fill="white"/>
<path d="M168.385 76.3878H167.46V70.0477L165.528 74.3617H164.977L163.058 70.0477V76.3878H162.195V69.0297H163.455L165.308 73.1263L167.101 69.0297H168.385V76.3878Z" fill="white"/>
<path d="M175.312 74.2876C175.312 74.5742 175.248 74.8576 175.121 75.1376C174.996 75.4176 174.82 75.6548 174.593 75.8492C174.344 76.06 174.053 76.2247 173.72 76.3433C173.39 76.4619 172.992 76.5212 172.525 76.5212C172.024 76.5212 171.573 76.4718 171.172 76.373C170.773 76.2742 170.367 76.1276 169.953 75.9332V74.7077H170.018C170.37 75.0173 170.776 75.2562 171.237 75.4242C171.697 75.5922 172.13 75.6762 172.535 75.6762C173.107 75.6762 173.552 75.5626 173.87 75.3353C174.19 75.1079 174.35 74.8048 174.35 74.426C174.35 74.0998 174.274 73.8593 174.122 73.7045C173.972 73.5497 173.744 73.4294 173.435 73.3438C173.202 73.2779 172.948 73.2235 172.675 73.1807C172.404 73.1379 172.116 73.0835 171.811 73.0176C171.195 72.8793 170.737 72.6437 170.439 72.311C170.143 71.9749 169.995 71.5384 169.995 71.0014C169.995 70.3854 170.241 69.8813 170.733 69.4893C171.224 69.0939 171.848 68.8963 172.605 68.8963C173.093 68.8963 173.541 68.9457 173.949 69.0445C174.357 69.1434 174.718 69.2653 175.032 69.4102V70.5666H174.967C174.702 70.3294 174.354 70.1334 173.921 69.9785C173.492 69.8204 173.051 69.7413 172.6 69.7413C172.105 69.7413 171.707 69.85 171.405 70.0675C171.106 70.2849 170.957 70.5649 170.957 70.9075C170.957 71.2139 171.031 71.4544 171.181 71.629C171.33 71.8036 171.593 71.937 171.97 72.0293C172.169 72.0754 172.452 72.1314 172.819 72.1973C173.187 72.2632 173.498 72.3307 173.753 72.3999C174.27 72.5449 174.659 72.764 174.92 73.0572C175.181 73.3504 175.312 73.7605 175.312 74.2876Z" fill="white"/>
</g>
<defs>
<clipPath id="clip0">
<rect width="267.719" height="98.558" fill="white"/>
</clipPath>
</defs>
</svg>
